G04 PROTEUS RS274X GERBER FILE*
%FSLAX26Y26*%
%MOIN*%
G01*
%ADD14C,0.008000*%
%ADD20C,0.024000*%
%ADD17C,0.019964*%
%ADD21C,0.040000*%
%ADD22C,0.010337*%
%ADD18C,0.006000*%
%ADD23C,0.003072*%
%ADD24C,0.002920*%
%ADD25C,0.028000*%
%ADD26C,0.004340*%
%ADD27C,0.032000*%
%ADD28C,0.009600*%
%ADD29C,0.008260*%
D14*
X-150984Y-416008D02*
X+199016Y-416008D01*
X+199016Y+491992D01*
X-150984Y+491992D01*
X-150984Y-416008D01*
D20*
X-125984Y+437992D02*
X-125984Y+437992D01*
D17*
X-35877Y-174683D02*
X+63943Y-174683D01*
X+83907Y-152224D01*
X+83907Y-62386D01*
X+63943Y-39926D01*
X-35877Y-39926D01*
X+4051Y+49912D02*
X-35877Y+94831D01*
X+83907Y+94831D01*
D14*
X-498819Y+734449D02*
X-165291Y+734449D01*
X-165291Y+1245142D01*
X-498819Y+1245142D01*
X-498819Y+734449D01*
D21*
X-318898Y+1000984D02*
X-318898Y+1000984D01*
D22*
X-425089Y+847379D02*
X-425089Y+837042D01*
X-413460Y+826705D01*
X-366943Y+826705D01*
X-355314Y+837042D01*
X-355314Y+888727D01*
X-262281Y+888727D02*
X-320427Y+888727D01*
X-320427Y+868053D01*
X-273910Y+868053D01*
X-262281Y+857716D01*
X-262281Y+837042D01*
X-273910Y+826705D01*
X-308798Y+826705D01*
X-320427Y+837042D01*
D18*
X-321890Y+679606D02*
X-441890Y+679606D01*
X-441890Y+169606D01*
X-321890Y+169606D01*
X-321890Y+679606D01*
X-441890Y+679606D01*
X-441890Y+169606D01*
X-321890Y+169606D01*
X-321890Y+679606D01*
D20*
X-381890Y+524606D02*
X-381890Y+524606D01*
D23*
X-372671Y+187507D02*
X-391107Y+187507D01*
X-391107Y+204791D01*
X-388035Y+208248D01*
X-384962Y+208248D01*
X-381889Y+204791D01*
X-381889Y+187507D01*
X-381889Y+204791D02*
X-378817Y+208248D01*
X-372671Y+208248D01*
X-372671Y+215161D02*
X-384962Y+215161D01*
X-391107Y+222074D01*
X-391107Y+228988D01*
X-384962Y+235902D01*
X-372671Y+235902D01*
X-378817Y+215161D02*
X-378817Y+235902D01*
X-378817Y+263557D02*
X-378817Y+242816D01*
X-391107Y+256643D01*
X-372671Y+256643D01*
X-381889Y+273927D02*
X-381889Y+291211D01*
X-372671Y+298124D02*
X-391107Y+298124D01*
X-391107Y+315408D01*
X-388035Y+318865D01*
X-384962Y+318865D01*
X-381889Y+315408D01*
X-381889Y+298124D01*
X-381889Y+315408D02*
X-378817Y+318865D01*
X-372671Y+318865D01*
X-372671Y+325779D02*
X-384962Y+325779D01*
X-391107Y+332692D01*
X-391107Y+339606D01*
X-384962Y+346520D01*
X-372671Y+346520D01*
X-378817Y+325779D02*
X-378817Y+346520D01*
X-388035Y+356890D02*
X-391107Y+360346D01*
X-391107Y+370717D01*
X-388035Y+374174D01*
X-384962Y+374174D01*
X-381889Y+370717D01*
X-378817Y+374174D01*
X-375744Y+374174D01*
X-372671Y+370717D01*
X-372671Y+360346D01*
X-375744Y+356890D01*
X-381889Y+363803D02*
X-381889Y+370717D01*
X-381889Y+384544D02*
X-381889Y+401828D01*
X-372671Y+408742D02*
X-391107Y+408742D01*
X-391107Y+426026D01*
X-388035Y+429483D01*
X-384962Y+429483D01*
X-381889Y+426026D01*
X-381889Y+408742D01*
X-381889Y+426026D02*
X-378817Y+429483D01*
X-372671Y+429483D01*
X-372671Y+436396D02*
X-384962Y+436396D01*
X-391107Y+443309D01*
X-391107Y+450223D01*
X-384962Y+457137D01*
X-372671Y+457137D01*
X-378817Y+436396D02*
X-378817Y+457137D01*
X-388035Y+467507D02*
X-391107Y+470963D01*
X-391107Y+481334D01*
X-388035Y+484791D01*
X-384962Y+484791D01*
X-381889Y+481334D01*
X-381889Y+470963D01*
X-378817Y+467507D01*
X-372671Y+467507D01*
X-372671Y+484791D01*
D18*
X-321890Y+90630D02*
X-441890Y+90630D01*
X-441890Y-519370D01*
X-321890Y-519370D01*
X-321890Y+90630D01*
X-441890Y+90630D01*
X-441890Y-519370D01*
X-321890Y-519370D01*
X-321890Y+90630D01*
D20*
X-381890Y-64370D02*
X-381890Y-64370D01*
D24*
X-373130Y-496469D02*
X-390650Y-496469D01*
X-390650Y-480044D01*
X-387730Y-476759D01*
X-384810Y-476759D01*
X-381890Y-480044D01*
X-381890Y-496469D01*
X-381890Y-480044D02*
X-378970Y-476759D01*
X-373130Y-476759D01*
X-373130Y-470189D02*
X-390650Y-470189D01*
X-390650Y-453764D01*
X-387730Y-450479D01*
X-384810Y-450479D01*
X-381890Y-453764D01*
X-378970Y-450479D01*
X-376050Y-450479D01*
X-373130Y-453764D01*
X-373130Y-470189D01*
X-381890Y-470189D02*
X-381890Y-453764D01*
X-387730Y-440624D02*
X-390650Y-437339D01*
X-390650Y-427484D01*
X-387730Y-424199D01*
X-384810Y-424199D01*
X-381890Y-427484D01*
X-378970Y-424199D01*
X-376050Y-424199D01*
X-373130Y-427484D01*
X-373130Y-437339D01*
X-376050Y-440624D01*
X-381890Y-434054D02*
X-381890Y-427484D01*
X-381890Y-414344D02*
X-381890Y-397919D01*
X-373130Y-391349D02*
X-390650Y-391349D01*
X-390650Y-374924D01*
X-387730Y-371639D01*
X-384810Y-371639D01*
X-381890Y-374924D01*
X-381890Y-391349D01*
X-381890Y-374924D02*
X-378970Y-371639D01*
X-373130Y-371639D01*
X-373130Y-365069D02*
X-390650Y-365069D01*
X-390650Y-348644D01*
X-387730Y-345359D01*
X-384810Y-345359D01*
X-381890Y-348644D01*
X-378970Y-345359D01*
X-376050Y-345359D01*
X-373130Y-348644D01*
X-373130Y-365069D01*
X-381890Y-365069D02*
X-381890Y-348644D01*
X-387730Y-335504D02*
X-390650Y-332219D01*
X-390650Y-322364D01*
X-387730Y-319079D01*
X-384810Y-319079D01*
X-381890Y-322364D01*
X-381890Y-332219D01*
X-378970Y-335504D01*
X-373130Y-335504D01*
X-373130Y-319079D01*
X-381890Y-309225D02*
X-381890Y-292800D01*
X-373130Y-286230D02*
X-390650Y-286230D01*
X-390650Y-269805D01*
X-387730Y-266520D01*
X-384810Y-266520D01*
X-381890Y-269805D01*
X-381890Y-286230D01*
X-381890Y-269805D02*
X-378970Y-266520D01*
X-373130Y-266520D01*
X-373130Y-259950D02*
X-390650Y-259950D01*
X-390650Y-243525D01*
X-387730Y-240240D01*
X-384810Y-240240D01*
X-381890Y-243525D01*
X-378970Y-240240D01*
X-376050Y-240240D01*
X-373130Y-243525D01*
X-373130Y-259950D01*
X-381890Y-259950D02*
X-381890Y-243525D01*
X-384810Y-227100D02*
X-390650Y-220530D01*
X-373130Y-220530D01*
X-381890Y-204105D02*
X-381890Y-187680D01*
X-373130Y-181110D02*
X-390650Y-181110D01*
X-390650Y-164685D01*
X-387730Y-161400D01*
X-384810Y-161400D01*
X-381890Y-164685D01*
X-381890Y-181110D01*
X-381890Y-164685D02*
X-378970Y-161400D01*
X-373130Y-161400D01*
X-373130Y-154830D02*
X-390650Y-154830D01*
X-390650Y-138405D01*
X-387730Y-135120D01*
X-384810Y-135120D01*
X-381890Y-138405D01*
X-378970Y-135120D01*
X-376050Y-135120D01*
X-373130Y-138405D01*
X-373130Y-154830D01*
X-381890Y-154830D02*
X-381890Y-138405D01*
X-376050Y-128550D02*
X-387730Y-128550D01*
X-390650Y-125265D01*
X-390650Y-112125D01*
X-387730Y-108840D01*
X-376050Y-108840D01*
X-373130Y-112125D01*
X-373130Y-125265D01*
X-376050Y-128550D01*
X-373130Y-128550D02*
X-390650Y-108840D01*
D14*
X-202717Y+690394D02*
X+267283Y+690394D01*
X+267283Y+760394D01*
X-202717Y+760394D01*
X-202717Y+690394D01*
D25*
X+232283Y+725394D02*
X+232283Y+725394D01*
D26*
X-31276Y+712374D02*
X-31276Y+738414D01*
X-6864Y+738414D01*
X-1981Y+734074D01*
X-1981Y+729734D01*
X-6864Y+725394D01*
X-31276Y+725394D01*
X-6864Y+725394D02*
X-1981Y+721054D01*
X-1981Y+712374D01*
X+17549Y+729734D02*
X+27314Y+738414D01*
X+27314Y+712374D01*
D14*
X+7811Y+878874D02*
X+315024Y+878874D01*
X+315024Y+1186087D01*
X+7811Y+1186087D01*
X+7811Y+878874D01*
D27*
X+62992Y+1032480D02*
X+62992Y+1032480D01*
D28*
X+225808Y+946080D02*
X+168208Y+946080D01*
X+168208Y+1000080D01*
X+177808Y+1010880D01*
X+187408Y+1010880D01*
X+197008Y+1000080D01*
X+206608Y+1010880D01*
X+216208Y+1010880D01*
X+225808Y+1000080D01*
X+225808Y+946080D01*
X+197008Y+946080D02*
X+197008Y+1000080D01*
X+187408Y+1054080D02*
X+168208Y+1075680D01*
X+225808Y+1075680D01*
D18*
X+345512Y-610906D02*
X+465512Y-610906D01*
X+465512Y-906D01*
X+345512Y-906D01*
X+345512Y-610906D01*
X+465512Y-610906D01*
X+465512Y-906D01*
X+345512Y-906D01*
X+345512Y-610906D01*
D20*
X+405512Y-455906D02*
X+405512Y-455906D01*
D24*
X+414272Y-418005D02*
X+396752Y-418005D01*
X+396752Y-401580D01*
X+399672Y-398295D01*
X+402592Y-398295D01*
X+405512Y-401580D01*
X+405512Y-418005D01*
X+405512Y-401580D02*
X+408432Y-398295D01*
X+414272Y-398295D01*
X+414272Y-391725D02*
X+396752Y-391725D01*
X+396752Y-375300D01*
X+399672Y-372015D01*
X+402592Y-372015D01*
X+405512Y-375300D01*
X+408432Y-372015D01*
X+411352Y-372015D01*
X+414272Y-375300D01*
X+414272Y-391725D01*
X+405512Y-391725D02*
X+405512Y-375300D01*
X+408432Y-345735D02*
X+408432Y-365445D01*
X+396752Y-352305D01*
X+414272Y-352305D01*
X+405512Y-335880D02*
X+405512Y-319455D01*
X+414272Y-312885D02*
X+396752Y-312885D01*
X+396752Y-296460D01*
X+399672Y-293175D01*
X+402592Y-293175D01*
X+405512Y-296460D01*
X+405512Y-312885D01*
X+405512Y-296460D02*
X+408432Y-293175D01*
X+414272Y-293175D01*
X+414272Y-286605D02*
X+396752Y-286605D01*
X+396752Y-270180D01*
X+399672Y-266895D01*
X+402592Y-266895D01*
X+405512Y-270180D01*
X+408432Y-266895D01*
X+411352Y-266895D01*
X+414272Y-270180D01*
X+414272Y-286605D01*
X+405512Y-286605D02*
X+405512Y-270180D01*
X+396752Y-240615D02*
X+396752Y-257040D01*
X+402592Y-257040D01*
X+402592Y-243900D01*
X+405512Y-240615D01*
X+411352Y-240615D01*
X+414272Y-243900D01*
X+414272Y-253755D01*
X+411352Y-257040D01*
X+405512Y-230761D02*
X+405512Y-214336D01*
X+414272Y-207766D02*
X+396752Y-207766D01*
X+396752Y-191341D01*
X+399672Y-188056D01*
X+402592Y-188056D01*
X+405512Y-191341D01*
X+405512Y-207766D01*
X+405512Y-191341D02*
X+408432Y-188056D01*
X+414272Y-188056D01*
X+414272Y-181486D02*
X+396752Y-181486D01*
X+396752Y-165061D01*
X+399672Y-161776D01*
X+402592Y-161776D01*
X+405512Y-165061D01*
X+408432Y-161776D01*
X+411352Y-161776D01*
X+414272Y-165061D01*
X+414272Y-181486D01*
X+405512Y-181486D02*
X+405512Y-165061D01*
X+399672Y-135496D02*
X+396752Y-138781D01*
X+396752Y-148636D01*
X+399672Y-151921D01*
X+411352Y-151921D01*
X+414272Y-148636D01*
X+414272Y-138781D01*
X+411352Y-135496D01*
X+408432Y-135496D01*
X+405512Y-138781D01*
X+405512Y-151921D01*
X+405512Y-125641D02*
X+405512Y-109216D01*
X+414272Y-102646D02*
X+396752Y-102646D01*
X+396752Y-86221D01*
X+399672Y-82936D01*
X+402592Y-82936D01*
X+405512Y-86221D01*
X+405512Y-102646D01*
X+405512Y-86221D02*
X+408432Y-82936D01*
X+414272Y-82936D01*
X+414272Y-76366D02*
X+396752Y-76366D01*
X+396752Y-59941D01*
X+399672Y-56656D01*
X+402592Y-56656D01*
X+405512Y-59941D01*
X+408432Y-56656D01*
X+411352Y-56656D01*
X+414272Y-59941D01*
X+414272Y-76366D01*
X+405512Y-76366D02*
X+405512Y-59941D01*
X+396752Y-46801D02*
X+396752Y-30376D01*
X+399672Y-30376D01*
X+414272Y-46801D01*
D18*
X+345512Y+152874D02*
X+465512Y+152874D01*
X+465512Y+762874D01*
X+345512Y+762874D01*
X+345512Y+152874D01*
X+465512Y+152874D01*
X+465512Y+762874D01*
X+345512Y+762874D01*
X+345512Y+152874D01*
D20*
X+405512Y+307874D02*
X+405512Y+307874D01*
D24*
X+414272Y+345775D02*
X+396752Y+345775D01*
X+396752Y+362200D01*
X+399672Y+365485D01*
X+402592Y+365485D01*
X+405512Y+362200D01*
X+405512Y+345775D01*
X+405512Y+362200D02*
X+408432Y+365485D01*
X+414272Y+365485D01*
X+414272Y+372055D02*
X+402592Y+372055D01*
X+396752Y+378625D01*
X+396752Y+385195D01*
X+402592Y+391765D01*
X+414272Y+391765D01*
X+408432Y+372055D02*
X+408432Y+391765D01*
X+399672Y+418045D02*
X+396752Y+414760D01*
X+396752Y+404905D01*
X+399672Y+401620D01*
X+411352Y+401620D01*
X+414272Y+404905D01*
X+414272Y+414760D01*
X+411352Y+418045D01*
X+408432Y+418045D01*
X+405512Y+414760D01*
X+405512Y+401620D01*
X+405512Y+427900D02*
X+405512Y+444325D01*
X+414272Y+450895D02*
X+396752Y+450895D01*
X+396752Y+467320D01*
X+399672Y+470605D01*
X+402592Y+470605D01*
X+405512Y+467320D01*
X+405512Y+450895D01*
X+405512Y+467320D02*
X+408432Y+470605D01*
X+414272Y+470605D01*
X+414272Y+477175D02*
X+402592Y+477175D01*
X+396752Y+483745D01*
X+396752Y+490315D01*
X+402592Y+496885D01*
X+414272Y+496885D01*
X+408432Y+477175D02*
X+408432Y+496885D01*
X+396752Y+506740D02*
X+396752Y+523165D01*
X+399672Y+523165D01*
X+414272Y+506740D01*
X+405512Y+533019D02*
X+405512Y+549444D01*
X+414272Y+556014D02*
X+396752Y+556014D01*
X+396752Y+572439D01*
X+399672Y+575724D01*
X+402592Y+575724D01*
X+405512Y+572439D01*
X+405512Y+556014D01*
X+405512Y+572439D02*
X+408432Y+575724D01*
X+414272Y+575724D01*
X+414272Y+582294D02*
X+402592Y+582294D01*
X+396752Y+588864D01*
X+396752Y+595434D01*
X+402592Y+602004D01*
X+414272Y+602004D01*
X+408432Y+582294D02*
X+408432Y+602004D01*
X+411352Y+608574D02*
X+399672Y+608574D01*
X+396752Y+611859D01*
X+396752Y+624999D01*
X+399672Y+628284D01*
X+411352Y+628284D01*
X+414272Y+624999D01*
X+414272Y+611859D01*
X+411352Y+608574D01*
X+414272Y+608574D02*
X+396752Y+628284D01*
X+405512Y+638139D02*
X+405512Y+654564D01*
X+414272Y+661134D02*
X+396752Y+661134D01*
X+396752Y+677559D01*
X+399672Y+680844D01*
X+402592Y+680844D01*
X+405512Y+677559D01*
X+405512Y+661134D01*
X+405512Y+677559D02*
X+408432Y+680844D01*
X+414272Y+680844D01*
X+414272Y+687414D02*
X+402592Y+687414D01*
X+396752Y+693984D01*
X+396752Y+700554D01*
X+402592Y+707124D01*
X+414272Y+707124D01*
X+408432Y+687414D02*
X+408432Y+707124D01*
X+402592Y+720264D02*
X+396752Y+726834D01*
X+414272Y+726834D01*
D18*
X+659528Y-863150D02*
X+659528Y-743150D01*
X+49528Y-743150D01*
X+49528Y-863150D01*
X+659528Y-863150D01*
X+659528Y-743150D01*
X+49528Y-743150D01*
X+49528Y-863150D01*
X+659528Y-863150D01*
D20*
X+504528Y-803150D02*
X+504528Y-803150D01*
D29*
X+158018Y-803150D02*
X+213773Y-803150D01*
X+185895Y-786630D02*
X+185895Y-819670D01*
X+288113Y-778370D02*
X+241650Y-778370D01*
X+241650Y-794890D01*
X+278820Y-794890D01*
X+288113Y-803150D01*
X+288113Y-819670D01*
X+278820Y-827930D01*
X+250943Y-827930D01*
X+241650Y-819670D01*
X+306698Y-778370D02*
X+306698Y-803150D01*
X+334575Y-827930D01*
X+362453Y-803150D01*
X+362453Y-778370D01*
D18*
X-17638Y-859213D02*
X-17638Y-739213D01*
X-627638Y-739213D01*
X-627638Y-859213D01*
X-17638Y-859213D01*
X-17638Y-739213D01*
X-627638Y-739213D01*
X-627638Y-859213D01*
X-17638Y-859213D01*
D20*
X-172638Y-799213D02*
X-172638Y-799213D01*
D29*
X-481977Y-807473D02*
X-463392Y-807473D01*
X-463392Y-823993D01*
X-500562Y-823993D01*
X-519147Y-807473D01*
X-519147Y-790953D01*
X-500562Y-774433D01*
X-472685Y-774433D01*
X-463392Y-782693D01*
X-444807Y-823993D02*
X-444807Y-774433D01*
X-389052Y-823993D01*
X-389052Y-774433D01*
X-370467Y-823993D02*
X-370467Y-774433D01*
X-333297Y-774433D01*
X-314712Y-790953D01*
X-314712Y-807473D01*
X-333297Y-823993D01*
X-370467Y-823993D01*
D18*
X-358937Y-994134D02*
X-358937Y-1114134D01*
X+451063Y-1114134D01*
X+451063Y-994134D01*
X-358937Y-994134D01*
X-358937Y-1114134D01*
X+451063Y-1114134D01*
X+451063Y-994134D01*
X-358937Y-994134D01*
D20*
X-203937Y-1054134D02*
X-203937Y-1054134D01*
D29*
X-91956Y-1078914D02*
X-91956Y-1029354D01*
X-45494Y-1029354D01*
X-36201Y-1037614D01*
X-36201Y-1045874D01*
X-45494Y-1054134D01*
X-91956Y-1054134D01*
X-8324Y-1029354D02*
X+28846Y-1029354D01*
X+10261Y-1029354D02*
X+10261Y-1078914D01*
X-8324Y-1078914D02*
X+28846Y-1078914D01*
X+112479Y-1070654D02*
X+103186Y-1078914D01*
X+75309Y-1078914D01*
X+56724Y-1062394D01*
X+56724Y-1045874D01*
X+75309Y-1029354D01*
X+103186Y-1029354D01*
X+112479Y-1037614D01*
X+131063Y-1029354D02*
X+131063Y-1078914D01*
X+186818Y-1029354D02*
X+158940Y-1054134D01*
X+186818Y-1078914D01*
X+131063Y-1054134D02*
X+158940Y-1054134D01*
X+214695Y-1029354D02*
X+251865Y-1029354D01*
X+233280Y-1029354D02*
X+233280Y-1078914D01*
X+214695Y-1078914D02*
X+251865Y-1078914D01*
X+279743Y-1029354D02*
X+335498Y-1029354D01*
X+307620Y-1029354D02*
X+307620Y-1078914D01*
D14*
X-704724Y-1231299D02*
X+712598Y-1231299D01*
X+712598Y+1245079D01*
X-704724Y+1245079D01*
X-704724Y-1231299D01*
M02*
