M48
INCH,TZ
T01C0.0300
T02C0.0500
%
T01
X-1260Y+4380
X-1260Y+3380
X-1260Y+2380
X-1260Y+1380
X-1260Y+380
X-1260Y-620
X-1260Y-1620
X-1260Y-2620
X-1260Y-3620
X+1740Y-3620
X+1740Y-2620
X+1740Y-1620
X+1740Y-620
X+1740Y+380
X+1740Y+1380
X+1740Y+2380
X+1740Y+3380
X+1740Y+4380
X-3819Y+5246
X-3819Y+4246
X-3819Y+3246
X-3819Y-644
X-3819Y-1644
X-3819Y-2644
X-3819Y-3644
X+2323Y+7254
X-1677Y+7254
X+630Y+10325
X+2598Y+10325
X+4055Y-4559
X+4055Y-3559
X+4055Y-2559
X+4055Y-1559
X+4055Y+3079
X+4055Y+4079
X+4055Y+5079
X+4055Y+6079
X+5045Y-8031
X+4045Y-8031
X+3045Y-8031
X+2045Y-8031
X-1726Y-7992
X-2726Y-7992
X-3726Y-7992
X-4726Y-7992
X-2039Y-10541
X-1039Y-10541
X-39Y-10541
X+961Y-10541
X+1961Y-10541
X+2961Y-10541
T02
X-3189Y+10010
X-4488Y+9065
X-3189Y+7844
M30
