G04 PROTEUS RS274X GERBER FILE*
%FSLAX26Y26*%
%MOIN*%
G01*
%AMPPAD009*
4,1,48,
-0.030000,0.040000,
0.030000,0.040000,
0.031039,0.039950,
0.032044,0.039801,
0.033011,0.039559,
0.034812,0.038814,
0.036404,0.037750,
0.037750,0.036403,
0.038813,0.034812,
0.039559,0.033011,
0.039801,0.032044,
0.039950,0.031039,
0.040000,0.030000,
0.040000,-0.030000,
0.039950,-0.031039,
0.039801,-0.032044,
0.039559,-0.033011,
0.038813,-0.034812,
0.037750,-0.036403,
0.036404,-0.037750,
0.034812,-0.038814,
0.033011,-0.039559,
0.032044,-0.039801,
0.031039,-0.039950,
0.030000,-0.040000,
-0.030000,-0.040000,
-0.031039,-0.039950,
-0.032044,-0.039801,
-0.033011,-0.039559,
-0.034812,-0.038814,
-0.036404,-0.037750,
-0.037750,-0.036403,
-0.038813,-0.034812,
-0.039559,-0.033011,
-0.039801,-0.032044,
-0.039950,-0.031039,
-0.040000,-0.030000,
-0.040000,0.030000,
-0.039950,0.031039,
-0.039801,0.032044,
-0.039559,0.033011,
-0.038813,0.034812,
-0.037750,0.036403,
-0.036404,0.037750,
-0.034812,0.038814,
-0.033011,0.039559,
-0.032044,0.039801,
-0.031039,0.039950,
-0.030000,0.040000,
0*%
%ADD19PPAD009*%
%AMPPAD010*
4,1,36,
-0.050000,0.055000,
0.050000,0.055000,
0.051022,0.054900,
0.051968,0.054614,
0.052818,0.054159,
0.053555,0.053555,
0.054159,0.052818,
0.054614,0.051968,
0.054900,0.051022,
0.055000,0.050000,
0.055000,-0.050000,
0.054900,-0.051022,
0.054614,-0.051968,
0.054159,-0.052818,
0.053555,-0.053555,
0.052818,-0.054159,
0.051968,-0.054614,
0.051022,-0.054900,
0.050000,-0.055000,
-0.050000,-0.055000,
-0.051022,-0.054900,
-0.051968,-0.054614,
-0.052818,-0.054159,
-0.053555,-0.053555,
-0.054159,-0.052818,
-0.054614,-0.051968,
-0.054900,-0.051022,
-0.055000,-0.050000,
-0.055000,0.050000,
-0.054900,0.051022,
-0.054614,0.051968,
-0.054159,0.052818,
-0.053555,0.053555,
-0.052818,0.054159,
-0.051968,0.054614,
-0.051022,0.054900,
-0.050000,0.055000,
0*%
%ADD70PPAD010*%
%ADD13C,0.080000*%
%ADD71C,0.090000*%
%ADD14C,0.008000*%
D19*
X-125984Y+437992D03*
X-125984Y+337992D03*
X-125984Y+237992D03*
X-125984Y+137992D03*
X-125984Y+37992D03*
X-125984Y-62008D03*
X-125984Y-162008D03*
X-125984Y-262008D03*
X-125984Y-362008D03*
X+174016Y-362008D03*
X+174016Y-262008D03*
X+174016Y-162008D03*
X+174016Y-62008D03*
X+174016Y+37992D03*
X+174016Y+137992D03*
X+174016Y+237992D03*
X+174016Y+337992D03*
X+174016Y+437992D03*
D70*
X-318898Y+1000984D03*
X-448819Y+906496D03*
X-318898Y+784449D03*
D19*
X-381890Y+524606D03*
X-381890Y+424606D03*
X-381890Y+324606D03*
X-381890Y-64370D03*
X-381890Y-164370D03*
X-381890Y-264370D03*
X-381890Y-364370D03*
D13*
X+232283Y+725394D03*
X-167717Y+725394D03*
D71*
X+62992Y+1032480D03*
X+259843Y+1032480D03*
D19*
X+405512Y-455906D03*
X+405512Y-355906D03*
X+405512Y-255906D03*
X+405512Y-155906D03*
X+405512Y+307874D03*
X+405512Y+407874D03*
X+405512Y+507874D03*
X+405512Y+607874D03*
X+504528Y-803150D03*
X+404528Y-803150D03*
X+304528Y-803150D03*
X+204528Y-803150D03*
X-172638Y-799213D03*
X-272638Y-799213D03*
X-372638Y-799213D03*
X-472638Y-799213D03*
X-203937Y-1054134D03*
X-103937Y-1054134D03*
X-3937Y-1054134D03*
X+96063Y-1054134D03*
X+196063Y-1054134D03*
X+296063Y-1054134D03*
D14*
X-704724Y-1231299D02*
X+712598Y-1231299D01*
X+712598Y+1245079D01*
X-704724Y+1245079D01*
X-704724Y-1231299D01*
M02*
