G04 PROTEUS RS274X GERBER FILE*
%FSLAX26Y26*%
%MOIN*%
G01*
%ADD14C,0.008000*%
%ADD72C,0.005000*%
%ADD73C,0.002500*%
D14*
X-125984Y+462992D02*
X-125984Y+412992D01*
X-150984Y+437992D02*
X-100984Y+437992D01*
X-125984Y+362992D02*
X-125984Y+312992D01*
X-150984Y+337992D02*
X-100984Y+337992D01*
X-125984Y+262992D02*
X-125984Y+212992D01*
X-150984Y+237992D02*
X-100984Y+237992D01*
X-125984Y+162992D02*
X-125984Y+112992D01*
X-150984Y+137992D02*
X-100984Y+137992D01*
X-125984Y+62992D02*
X-125984Y+12992D01*
X-150984Y+37992D02*
X-100984Y+37992D01*
X-125984Y-37008D02*
X-125984Y-87008D01*
X-150984Y-62008D02*
X-100984Y-62008D01*
X-125984Y-137008D02*
X-125984Y-187008D01*
X-150984Y-162008D02*
X-100984Y-162008D01*
X-125984Y-237008D02*
X-125984Y-287008D01*
X-150984Y-262008D02*
X-100984Y-262008D01*
X-125984Y-337008D02*
X-125984Y-387008D01*
X-150984Y-362008D02*
X-100984Y-362008D01*
X+174016Y-337008D02*
X+174016Y-387008D01*
X+149016Y-362008D02*
X+199016Y-362008D01*
X+174016Y-237008D02*
X+174016Y-287008D01*
X+149016Y-262008D02*
X+199016Y-262008D01*
X+174016Y-137008D02*
X+174016Y-187008D01*
X+149016Y-162008D02*
X+199016Y-162008D01*
X+174016Y-37008D02*
X+174016Y-87008D01*
X+149016Y-62008D02*
X+199016Y-62008D01*
X+174016Y+62992D02*
X+174016Y+12992D01*
X+149016Y+37992D02*
X+199016Y+37992D01*
X+174016Y+162992D02*
X+174016Y+112992D01*
X+149016Y+137992D02*
X+199016Y+137992D01*
X+174016Y+262992D02*
X+174016Y+212992D01*
X+149016Y+237992D02*
X+199016Y+237992D01*
X+174016Y+362992D02*
X+174016Y+312992D01*
X+149016Y+337992D02*
X+199016Y+337992D01*
X+174016Y+462992D02*
X+174016Y+412992D01*
X+149016Y+437992D02*
X+199016Y+437992D01*
X-336575Y+1018662D02*
X-301220Y+983307D01*
X-336575Y+983307D02*
X-301220Y+1018662D01*
X-466496Y+924174D02*
X-431141Y+888819D01*
X-466496Y+888819D02*
X-431141Y+924174D01*
X-336575Y+802126D02*
X-301220Y+766771D01*
X-336575Y+766771D02*
X-301220Y+802126D01*
X-381890Y+549606D02*
X-381890Y+499606D01*
X-406890Y+524606D02*
X-356890Y+524606D01*
X-381890Y+449606D02*
X-381890Y+399606D01*
X-406890Y+424606D02*
X-356890Y+424606D01*
X-381890Y+349606D02*
X-381890Y+299606D01*
X-406890Y+324606D02*
X-356890Y+324606D01*
X-381890Y-39370D02*
X-381890Y-89370D01*
X-406890Y-64370D02*
X-356890Y-64370D01*
X-381890Y-139370D02*
X-381890Y-189370D01*
X-406890Y-164370D02*
X-356890Y-164370D01*
X-381890Y-239370D02*
X-381890Y-289370D01*
X-406890Y-264370D02*
X-356890Y-264370D01*
X-381890Y-339370D02*
X-381890Y-389370D01*
X-406890Y-364370D02*
X-356890Y-364370D01*
X+232283Y+750394D02*
X+232283Y+700394D01*
X+207283Y+725394D02*
X+257283Y+725394D01*
X-167717Y+750394D02*
X-167717Y+700394D01*
X-192717Y+725394D02*
X-142717Y+725394D01*
X+62992Y+1057480D02*
X+62992Y+1007480D01*
X+37992Y+1032480D02*
X+87992Y+1032480D01*
X+259843Y+1057480D02*
X+259843Y+1007480D01*
X+234843Y+1032480D02*
X+284843Y+1032480D01*
X+405512Y-430906D02*
X+405512Y-480906D01*
X+380512Y-455906D02*
X+430512Y-455906D01*
X+405512Y-330906D02*
X+405512Y-380906D01*
X+380512Y-355906D02*
X+430512Y-355906D01*
X+405512Y-230906D02*
X+405512Y-280906D01*
X+380512Y-255906D02*
X+430512Y-255906D01*
X+405512Y-130906D02*
X+405512Y-180906D01*
X+380512Y-155906D02*
X+430512Y-155906D01*
X+405512Y+332874D02*
X+405512Y+282874D01*
X+380512Y+307874D02*
X+430512Y+307874D01*
X+405512Y+432874D02*
X+405512Y+382874D01*
X+380512Y+407874D02*
X+430512Y+407874D01*
X+405512Y+532874D02*
X+405512Y+482874D01*
X+380512Y+507874D02*
X+430512Y+507874D01*
X+405512Y+632874D02*
X+405512Y+582874D01*
X+380512Y+607874D02*
X+430512Y+607874D01*
X+504528Y-778150D02*
X+504528Y-828150D01*
X+479528Y-803150D02*
X+529528Y-803150D01*
X+404528Y-778150D02*
X+404528Y-828150D01*
X+379528Y-803150D02*
X+429528Y-803150D01*
X+304528Y-778150D02*
X+304528Y-828150D01*
X+279528Y-803150D02*
X+329528Y-803150D01*
X+204528Y-778150D02*
X+204528Y-828150D01*
X+179528Y-803150D02*
X+229528Y-803150D01*
X-172638Y-774213D02*
X-172638Y-824213D01*
X-197638Y-799213D02*
X-147638Y-799213D01*
X-272638Y-774213D02*
X-272638Y-824213D01*
X-297638Y-799213D02*
X-247638Y-799213D01*
X-372638Y-774213D02*
X-372638Y-824213D01*
X-397638Y-799213D02*
X-347638Y-799213D01*
X-472638Y-774213D02*
X-472638Y-824213D01*
X-497638Y-799213D02*
X-447638Y-799213D01*
X-203937Y-1029134D02*
X-203937Y-1079134D01*
X-228937Y-1054134D02*
X-178937Y-1054134D01*
X-103937Y-1029134D02*
X-103937Y-1079134D01*
X-128937Y-1054134D02*
X-78937Y-1054134D01*
X-3937Y-1029134D02*
X-3937Y-1079134D01*
X-28937Y-1054134D02*
X+21063Y-1054134D01*
X+96063Y-1029134D02*
X+96063Y-1079134D01*
X+71063Y-1054134D02*
X+121063Y-1054134D01*
X+196063Y-1029134D02*
X+196063Y-1079134D01*
X+171063Y-1054134D02*
X+221063Y-1054134D01*
X+296063Y-1029134D02*
X+296063Y-1079134D01*
X+271063Y-1054134D02*
X+321063Y-1054134D01*
X-704724Y-1231299D02*
X+712598Y-1231299D01*
X+712598Y+1245079D01*
X-704724Y+1245079D01*
X-704724Y-1231299D01*
D72*
X-709724Y-1636299D02*
X+243276Y-1636299D01*
X+243276Y-1336299D01*
X-709724Y-1336299D01*
X-709724Y-1636299D01*
D73*
X-525724Y-1336299D02*
X-525724Y-1636299D01*
X-293724Y-1336299D02*
X-293724Y-1636299D01*
X+34276Y-1336299D02*
X+34276Y-1636299D01*
X-709724Y-1443799D02*
X+243276Y-1443799D01*
X-709724Y-1538799D02*
X+243276Y-1538799D01*
D72*
X-687224Y-1400799D02*
X-681224Y-1406799D01*
X-657224Y-1406799D01*
X-651224Y-1400799D01*
X-651224Y-1394799D01*
X-657224Y-1388799D01*
X-681224Y-1388799D01*
X-687224Y-1382799D01*
X-687224Y-1376799D01*
X-681224Y-1370799D01*
X-657224Y-1370799D01*
X-651224Y-1376799D01*
X-603224Y-1370799D02*
X-639224Y-1406799D01*
X-639224Y-1370799D02*
X-621224Y-1388799D01*
X-591224Y-1406799D02*
X-591224Y-1370799D01*
X-573224Y-1388799D01*
X-555224Y-1370799D01*
X-555224Y-1406799D01*
X-503224Y-1400799D02*
X-497224Y-1406799D01*
X-473224Y-1406799D01*
X-467224Y-1400799D01*
X-467224Y-1394799D01*
X-473224Y-1388799D01*
X-497224Y-1388799D01*
X-503224Y-1382799D01*
X-503224Y-1376799D01*
X-497224Y-1370799D01*
X-473224Y-1370799D01*
X-467224Y-1376799D01*
X-449224Y-1370799D02*
X-425224Y-1370799D01*
X-437224Y-1370799D02*
X-437224Y-1406799D01*
X-449224Y-1406799D02*
X-425224Y-1406799D01*
X-407224Y-1370799D02*
X-371224Y-1370799D01*
X-407224Y-1406799D01*
X-371224Y-1406799D01*
X-323224Y-1406799D02*
X-359224Y-1406799D01*
X-359224Y-1370799D01*
X-323224Y-1370799D01*
X-359224Y-1388799D02*
X-335224Y-1388799D01*
X-271224Y-1406799D02*
X-271224Y-1370799D01*
X-241224Y-1370799D01*
X-235224Y-1376799D01*
X-235224Y-1382799D01*
X-241224Y-1388799D01*
X-271224Y-1388799D01*
X-223224Y-1370799D02*
X-223224Y-1406799D01*
X-187224Y-1406799D01*
X-175224Y-1406799D02*
X-175224Y-1382799D01*
X-163224Y-1370799D01*
X-151224Y-1370799D01*
X-139224Y-1382799D01*
X-139224Y-1406799D01*
X-175224Y-1394799D02*
X-139224Y-1394799D01*
X-127224Y-1370799D02*
X-91224Y-1370799D01*
X-109224Y-1370799D02*
X-109224Y-1406799D01*
X-43224Y-1406799D02*
X-79224Y-1406799D01*
X-79224Y-1370799D01*
X-43224Y-1370799D01*
X-79224Y-1388799D02*
X-55224Y-1388799D01*
X-31224Y-1406799D02*
X-31224Y-1370799D01*
X-7224Y-1370799D01*
X+4776Y-1382799D01*
X+4776Y-1394799D01*
X-7224Y-1406799D01*
X-31224Y-1406799D01*
X+56776Y-1382799D02*
X+68776Y-1370799D01*
X+80776Y-1370799D01*
X+92776Y-1382799D01*
X+92776Y-1394799D01*
X+80776Y-1406799D01*
X+68776Y-1406799D01*
X+56776Y-1394799D01*
X+56776Y-1382799D01*
X+80776Y-1394799D02*
X+92776Y-1406799D01*
X+104776Y-1370799D02*
X+140776Y-1370799D01*
X+122776Y-1370799D02*
X+122776Y-1406799D01*
X+188776Y-1370799D02*
X+152776Y-1406799D01*
X+152776Y-1370799D02*
X+170776Y-1388799D01*
D14*
X-612724Y-1463799D02*
X-612724Y-1513799D01*
X-637724Y-1488799D02*
X-587724Y-1488799D01*
D72*
X-490724Y-1478799D02*
X-485724Y-1473799D01*
X-470724Y-1473799D01*
X-465724Y-1478799D01*
X-465724Y-1483799D01*
X-470724Y-1488799D01*
X-465724Y-1493799D01*
X-465724Y-1498799D01*
X-470724Y-1503799D01*
X-485724Y-1503799D01*
X-490724Y-1498799D01*
X-480724Y-1488799D02*
X-470724Y-1488799D01*
X-455724Y-1498799D02*
X-455724Y-1478799D01*
X-450724Y-1473799D01*
X-430724Y-1473799D01*
X-425724Y-1478799D01*
X-425724Y-1498799D01*
X-430724Y-1503799D01*
X-450724Y-1503799D01*
X-455724Y-1498799D01*
X-455724Y-1503799D02*
X-425724Y-1473799D01*
X-410724Y-1473799D02*
X-410724Y-1498799D01*
X-405724Y-1503799D01*
X-390724Y-1503799D01*
X-385724Y-1498799D01*
X-415724Y-1483799D02*
X-390724Y-1483799D01*
X-345724Y-1503799D02*
X-345724Y-1488799D01*
X-350724Y-1483799D01*
X-370724Y-1483799D01*
X-375724Y-1488799D01*
X-375724Y-1473799D02*
X-375724Y-1503799D01*
X-228724Y-1473799D02*
X-258724Y-1503799D01*
X-258724Y-1473799D02*
X-243724Y-1488799D01*
X-188724Y-1503799D02*
X-218724Y-1503799D01*
X-218724Y-1473799D01*
X-188724Y-1473799D01*
X-218724Y-1488799D02*
X-198724Y-1488799D01*
X-178724Y-1498799D02*
X-173724Y-1503799D01*
X-153724Y-1503799D01*
X-148724Y-1498799D01*
X-148724Y-1493799D01*
X-153724Y-1488799D01*
X-173724Y-1488799D01*
X-178724Y-1483799D01*
X-178724Y-1478799D01*
X-173724Y-1473799D01*
X-153724Y-1473799D01*
X-148724Y-1478799D01*
X+104276Y-1473799D02*
X+79276Y-1473799D01*
X+79276Y-1483799D01*
X+99276Y-1483799D01*
X+104276Y-1488799D01*
X+104276Y-1498799D01*
X+99276Y-1503799D01*
X+84276Y-1503799D01*
X+79276Y-1498799D01*
X+124276Y-1483799D02*
X+134276Y-1473799D01*
X+134276Y-1503799D01*
D14*
X-630402Y-1566122D02*
X-595047Y-1601477D01*
X-630402Y-1601477D02*
X-595047Y-1566122D01*
D72*
X-465724Y-1568799D02*
X-490724Y-1568799D01*
X-490724Y-1578799D01*
X-470724Y-1578799D01*
X-465724Y-1583799D01*
X-465724Y-1593799D01*
X-470724Y-1598799D01*
X-485724Y-1598799D01*
X-490724Y-1593799D01*
X-455724Y-1593799D02*
X-455724Y-1573799D01*
X-450724Y-1568799D01*
X-430724Y-1568799D01*
X-425724Y-1573799D01*
X-425724Y-1593799D01*
X-430724Y-1598799D01*
X-450724Y-1598799D01*
X-455724Y-1593799D01*
X-455724Y-1598799D02*
X-425724Y-1568799D01*
X-410724Y-1568799D02*
X-410724Y-1593799D01*
X-405724Y-1598799D01*
X-390724Y-1598799D01*
X-385724Y-1593799D01*
X-415724Y-1578799D02*
X-390724Y-1578799D01*
X-345724Y-1598799D02*
X-345724Y-1583799D01*
X-350724Y-1578799D01*
X-370724Y-1578799D01*
X-375724Y-1583799D01*
X-375724Y-1568799D02*
X-375724Y-1598799D01*
X-228724Y-1568799D02*
X-258724Y-1598799D01*
X-258724Y-1568799D02*
X-243724Y-1583799D01*
X-188724Y-1598799D02*
X-218724Y-1598799D01*
X-218724Y-1568799D01*
X-188724Y-1568799D01*
X-218724Y-1583799D02*
X-198724Y-1583799D01*
X-178724Y-1593799D02*
X-173724Y-1598799D01*
X-153724Y-1598799D01*
X-148724Y-1593799D01*
X-148724Y-1588799D01*
X-153724Y-1583799D01*
X-173724Y-1583799D01*
X-178724Y-1578799D01*
X-178724Y-1573799D01*
X-173724Y-1568799D01*
X-153724Y-1568799D01*
X-148724Y-1573799D01*
X+79276Y-1573799D02*
X+84276Y-1568799D01*
X+99276Y-1568799D01*
X+104276Y-1573799D01*
X+104276Y-1578799D01*
X+99276Y-1583799D01*
X+104276Y-1588799D01*
X+104276Y-1593799D01*
X+99276Y-1598799D01*
X+84276Y-1598799D01*
X+79276Y-1593799D01*
X+89276Y-1583799D02*
X+99276Y-1583799D01*
M02*
